<?xml version="1.0" standalone="no"?>
<!DOCTYPE svg PUBLIC "-//W3C//DTD SVG 20010904//EN"
 "http://www.w3.org/TR/2001/REC-SVG-20010904/DTD/svg10.dtd">
<svg version="1.0" xmlns="http://www.w3.org/2000/svg"
 width="1024.000000pt" height="1024.000000pt" viewBox="0 0 1024.000000 1024.000000"
 preserveAspectRatio="xMidYMid meet">

<g transform="translate(0.000000,1024.000000) scale(0.100000,-0.100000)"
fill="#000000" stroke="none">
<path d="M4255 6750 c-22 -5 -53 -15 -70 -24 -16 -9 -37 -16 -45 -16 -9 0 -20
-4 -25 -9 -6 -4 -46 -21 -90 -37 -44 -15 -91 -34 -105 -41 -14 -7 -32 -13 -41
-13 -8 0 -19 -4 -25 -8 -5 -5 -45 -21 -89 -36 -44 -15 -89 -32 -100 -36 -11
-5 -40 -18 -65 -29 -25 -11 -58 -23 -73 -26 -15 -4 -30 -11 -33 -16 -3 -5 -13
-9 -22 -9 -9 -1 -35 -9 -57 -20 -22 -11 -44 -19 -50 -20 -9 0 -77 -25 -150
-55 -16 -7 -77 -30 -135 -50 -58 -21 -109 -41 -115 -45 -5 -4 -46 -20 -90 -35
-44 -16 -84 -32 -90 -37 -5 -4 -16 -8 -25 -8 -8 -1 -33 -9 -55 -20 -22 -11
-47 -19 -56 -20 -8 0 -19 -4 -25 -9 -5 -4 -45 -21 -89 -37 -44 -15 -91 -34
-105 -41 -14 -7 -33 -13 -42 -13 -9 0 -19 -4 -22 -9 -3 -5 -18 -12 -33 -16
-24 -5 -171 -60 -228 -84 -32 -14 -179 -69 -258 -97 -171 -61 -222 -105 -332
-284 -33 -52 -82 -131 -111 -175 -28 -44 -59 -93 -68 -110 -9 -16 -57 -95
-106 -175 -192 -313 -204 -366 -115 -484 28 -35 55 -54 130 -90 52 -25 98 -46
101 -46 3 0 24 -9 47 -19 24 -11 55 -23 70 -26 15 -4 30 -11 33 -16 3 -5 12
-9 20 -9 13 0 42 -11 129 -50 11 -5 43 -19 72 -30 l52 -22 3 -81 c3 -45 5
-381 6 -747 1 -366 7 -692 12 -724 31 -191 153 -348 340 -438 52 -25 124 -58
160 -72 36 -15 74 -31 85 -36 11 -5 43 -18 70 -30 28 -12 65 -28 83 -36 74
-33 107 -47 312 -134 118 -50 235 -101 260 -112 25 -11 200 -88 390 -170 190
-82 354 -153 365 -158 11 -5 43 -18 70 -30 28 -12 59 -25 70 -30 150 -65 566
-244 615 -264 36 -15 74 -31 85 -36 58 -29 194 -60 257 -60 81 0 141 19 323
103 72 32 155 70 185 84 30 14 115 54 188 89 73 35 135 64 137 64 2 0 51 23
110 50 59 28 108 50 110 50 2 0 36 15 77 34 70 33 120 55 246 112 31 14 85 39
120 55 34 16 64 29 67 29 4 0 62 27 230 105 182 86 224 105 229 105 3 0 52 22
108 49 168 79 238 111 243 111 8 0 299 146 331 166 63 39 117 90 159 149 52
74 68 109 95 205 19 72 20 101 20 820 l0 745 33 14 c59 27 272 122 302 135 17
8 59 26 95 41 176 73 238 117 266 192 20 53 14 125 -15 174 -11 19 -27 46 -35
60 -13 23 -247 373 -437 654 -126 186 -172 218 -429 295 -41 12 -106 33 -145
45 -38 13 -110 35 -160 49 -49 15 -97 31 -105 35 -9 5 -31 12 -50 16 -19 4
-39 11 -45 15 -5 4 -26 11 -45 15 -19 4 -80 22 -135 39 -55 18 -134 43 -175
55 -41 13 -84 27 -95 31 -20 9 -196 64 -205 65 -14 1 -187 57 -201 65 -9 5
-32 12 -51 15 -34 6 -34 6 -100 -92 -36 -54 -97 -143 -135 -198 -38 -55 -121
-176 -184 -270 -150 -220 -250 -365 -466 -675 -103 -148 -66 -79 60 112 124
188 157 245 113 193 -21 -25 -25 -27 -26 -11 0 15 -5 17 -29 13 -33 -7 -73 2
-65 14 3 5 -2 9 -10 9 -8 0 -18 -5 -22 -12 -5 -8 -10 -7 -18 4 -17 22 -46 31
-109 34 -38 2 -66 9 -78 20 -10 9 -25 14 -34 11 -8 -4 -15 -2 -15 3 0 6 -9 10
-21 10 -11 0 -30 5 -41 11 -15 8 -22 8 -28 -1 -9 -15 -28 -5 -81 43 -21 19
-54 24 -43 6 4 -7 1 -10 -7 -7 -8 2 -18 14 -24 26 -7 15 -16 20 -30 17 -11 -3
-14 -2 -7 1 17 8 15 34 -3 34 -8 0 -15 5 -15 10 0 6 -5 10 -11 10 -5 0 -7 -4
-4 -10 3 -5 1 -10 -6 -10 -7 0 -9 8 -6 21 4 16 3 18 -9 8 -8 -6 -14 -18 -14
-25 0 -8 -4 -14 -10 -14 -18 0 -16 4 57 117 18 28 33 53 33 56 0 2 -14 7 -31
11 -25 5 -29 9 -24 27 6 18 4 20 -16 14 -19 -6 -21 -4 -15 11 6 15 4 16 -5 7
-6 -6 -18 -9 -26 -6 -11 5 -11 9 3 24 16 18 16 19 -4 19 -12 0 -22 4 -22 8 0
4 -19 13 -43 20 l-44 13 7 42 c4 23 11 51 15 62 8 20 -44 -52 -165 -231 -36
-52 -73 -105 -82 -116 -10 -12 -18 -26 -18 -31 0 -6 -3 -7 -6 -4 -4 4 4 24 18
44 14 21 56 85 93 143 38 58 83 128 100 155 18 28 110 169 205 314 157 241
171 265 154 275 -25 14 -54 25 -269 97 -99 33 -189 64 -200 68 -100 43 -217
64 -280 51z m148 -247 c-7 -2 -19 -2 -25 0 -7 3 -2 5 12 5 14 0 19 -2 13 -5z
m-386 -129 c-3 -3 -12 -4 -19 -1 -8 3 -5 6 6 6 11 1 17 -2 13 -5z m-190 -70
c-3 -3 -12 -4 -19 -1 -8 3 -5 6 6 6 11 1 17 -2 13 -5z m-200 -70 c-3 -3 -12
-4 -19 -1 -8 3 -5 6 6 6 11 1 17 -2 13 -5z m-1333 -718 c229 -91 539 -214 966
-384 69 -27 204 -81 300 -120 96 -39 321 -129 500 -200 179 -72 443 -178 587
-236 144 -58 275 -106 291 -106 27 0 53 9 137 45 17 7 73 30 125 50 52 21 109
44 125 51 17 7 75 31 130 54 55 22 109 45 120 50 11 5 63 26 115 46 52 20 109
42 125 49 17 8 75 32 130 55 55 22 109 45 120 50 11 5 94 39 185 76 215 86
281 113 305 124 24 11 51 22 255 105 188 76 343 140 470 193 52 22 150 63 218
91 68 28 141 60 162 71 22 11 46 20 55 20 30 0 14 -18 -34 -38 -26 -12 -79
-35 -117 -52 -38 -18 -83 -38 -101 -46 -17 -8 -34 -14 -37 -14 -3 0 -41 -16
-83 -36 -89 -41 -132 -59 -153 -67 -12 -4 -11 -6 3 -6 10 -1 15 -5 12 -11 -8
-13 7 -13 40 0 14 6 58 17 97 25 39 8 78 21 87 28 21 18 95 44 146 51 29 5 9
-7 -75 -44 -63 -28 -142 -63 -175 -80 -89 -43 -162 -75 -340 -145 -88 -35
-221 -89 -295 -120 -74 -31 -164 -67 -200 -81 -36 -14 -76 -31 -88 -37 -35
-17 -8 -21 30 -4 121 53 197 77 204 66 3 -5 -2 -9 -10 -9 -9 0 -16 -5 -16 -11
0 -5 -4 -8 -9 -5 -5 4 -11 2 -13 -4 -2 -8 -28 -16 -60 -19 -5 -1 -8 -7 -8 -15
0 -8 -7 -16 -15 -20 -8 -3 -15 -15 -15 -26 0 -11 -6 -20 -14 -20 -7 0 -19 -6
-25 -14 -10 -11 -8 -15 6 -19 13 -4 12 -5 -6 -6 -20 -1 -21 -3 -11 -16 10 -12
8 -22 -3 -12 -5 4 -35 -28 -31 -34 2 -3 -8 -17 -21 -29 -14 -13 -25 -29 -25
-37 0 -7 -4 -13 -10 -13 -5 0 -10 -5 -10 -11 0 -5 6 -7 13 -3 6 4 3 -2 -8 -13
-12 -12 -23 -16 -26 -10 -4 5 -12 6 -19 2 -9 -6 -9 -9 1 -16 11 -7 9 -9 -5 -9
-18 0 -18 -1 -1 -20 10 -11 21 -17 26 -15 4 3 10 1 14 -5 3 -6 -3 -10 -15 -10
-12 0 -28 -7 -36 -15 -9 -8 -24 -15 -36 -15 -11 0 -18 -5 -15 -12 2 -7 10 -12
16 -11 6 2 11 -2 11 -7 0 -6 -7 -10 -16 -10 -9 0 -14 -6 -11 -12 19 -47 20
-53 7 -41 -11 10 -17 8 -32 -9 -10 -12 -18 -28 -18 -37 0 -9 -19 -25 -41 -36
-23 -10 -36 -21 -30 -23 7 -2 6 -14 -3 -37 -8 -18 -12 -36 -8 -39 3 -3 -7 -6
-21 -6 -29 0 -38 -20 -9 -21 9 0 12 -3 5 -5 -7 -3 -9 -13 -6 -21 5 -13 2 -15
-11 -10 -26 10 -36 -1 -26 -28 5 -14 5 -27 0 -30 -4 -3 -11 8 -15 25 -7 31
-25 42 -25 15 0 -8 -6 -15 -12 -16 -9 0 -9 -2 -2 -5 13 -6 6 -54 -8 -54 -5 0
-6 10 -2 23 6 21 6 21 -12 6 -11 -9 -25 -14 -31 -12 -20 7 -15 -7 10 -28 l22
-20 -32 6 c-21 4 -33 3 -33 -4 0 -6 -3 -10 -8 -8 -4 1 -8 -2 -9 -8 -2 -5 5
-10 15 -10 9 0 17 -7 17 -15 0 -11 -12 -15 -44 -15 -30 0 -47 -5 -54 -17 -17
-26 0 -34 20 -10 16 19 20 20 37 7 11 -8 16 -18 13 -22 -4 -4 -13 -1 -19 5 -8
8 -14 8 -22 -4 -6 -8 -25 -16 -41 -18 -17 -2 -29 -8 -28 -12 1 -5 3 -16 6 -24
2 -8 2 -12 0 -7 -7 10 -33 9 -33 -3 0 -5 -7 -7 -15 -4 -8 4 -15 1 -15 -5 0 -6
4 -11 9 -11 5 0 11 -11 13 -25 7 -32 -1 -32 -29 3 -12 15 -22 21 -23 15 0 -7
4 -13 9 -13 13 0 10 -43 -4 -52 -6 -5 -6 -8 3 -8 6 0 12 -7 12 -15 0 -12 -7
-14 -26 -9 -22 6 -25 4 -22 -12 2 -11 10 -18 16 -17 16 4 15 -19 0 -37 -11
-12 -10 -12 4 -2 21 16 33 -1 13 -18 -14 -11 -13 -15 5 -27 11 -8 18 -18 15
-23 -3 -5 -1 -11 5 -15 6 -4 7 -11 4 -17 -4 -6 1 -17 11 -25 11 -7 15 -13 9
-13 -5 0 18 -14 51 -30 55 -28 66 -30 130 -25 78 6 252 64 420 140 97 45 235
105 240 105 2 0 32 13 67 29 95 45 192 81 214 80 20 0 -26 -23 -296 -146 -91
-42 -194 -89 -230 -105 -36 -17 -87 -39 -115 -50 -27 -10 -66 -26 -85 -35 -47
-22 -125 -52 -182 -70 -36 -11 -45 -18 -41 -30 10 -27 -87 -11 -162 26 -60 30
-88 57 -333 324 -147 161 -314 341 -371 402 -95 101 -156 194 -148 225 1 6
-41 28 -93 51 -52 22 -104 44 -115 49 -61 27 -132 57 -335 138 -271 108 -448
180 -475 192 -11 5 -139 57 -285 116 -363 146 -339 136 -948 379 -545 217
-659 265 -633 265 7 0 131 -47 275 -104z m4231 -626 c-3 -5 -10 -10 -16 -10
-5 0 -9 5 -9 10 0 6 7 10 16 10 8 0 12 -4 9 -10z m-85 -124 c0 -3 -4 -8 -10
-11 -5 -3 -10 -1 -10 4 0 6 5 11 10 11 6 0 10 -2 10 -4z m-120 -226 c0 -5 -4
-10 -10 -10 -5 0 -10 5 -10 10 0 6 5 10 10 10 6 0 10 -4 10 -10z m-1450 -165
c-7 -9 -15 -13 -18 -10 -3 2 1 11 8 20 7 9 15 13 18 10 3 -2 -1 -11 -8 -20z
m1323 -22 c4 9 6 9 6 0 1 -7 -8 -17 -19 -23 -11 -6 -20 -9 -20 -6 0 2 -3 12
-7 21 -5 15 -3 16 15 6 15 -8 22 -8 25 2z m-48 -53 c3 -5 1 -10 -4 -10 -6 0
-11 5 -11 10 0 6 2 10 4 10 3 0 8 -4 11 -10z m-405 -480 c0 -5 -4 -10 -9 -10
-6 0 -13 5 -16 10 -3 6 1 10 9 10 9 0 16 -4 16 -10z"/>
<path d="M7115 5315 l-30 -14 30 6 c17 3 37 9 45 14 27 15 -11 10 -45 -6z"/>
<path d="M6370 4760 c-8 -5 -11 -12 -7 -16 4 -4 13 -2 19 4 15 15 7 24 -12 12z"/>
<path d="M5736 3945 c-3 -8 -1 -15 4 -15 6 0 10 7 10 15 0 8 -2 15 -4 15 -2 0
-6 -7 -10 -15z"/>
<path d="M5660 3850 c0 -5 5 -10 10 -10 6 0 10 5 10 10 0 6 -4 10 -10 10 -5 0
-10 -4 -10 -10z"/>
<path d="M4726 6023 c-6 -14 -5 -15 5 -6 7 7 10 15 7 18 -3 3 -9 -2 -12 -12z"/>
</g>
</svg>
